<svg xmlns="http://www.w3.org/2000/svg" width="42" height="42" viewBox="0 0 42 42">
    <g fill="none" fill-rule="evenodd" opacity=".9" transform="translate(1 1)">
        <circle cx="20" cy="20" r="20" fill="#FFF" stroke="#CCC"/>
        <path fill="#444" d="M17.116 25.446c-1.065 0-1.93.863-1.93 1.93 0 1.063.865 1.927 1.93 1.927s1.929-.864 1.929-1.928c0-1.066-.864-1.929-1.93-1.929m0 1c.513 0 .93.416.93.93 0 .51-.417.927-.93.927-.511 0-.928-.417-.928-.928 0-.513.417-.929.929-.929M22.482 27.375c0 1.064.864 1.928 1.929 1.928s1.929-.864 1.929-1.928c0-1.066-.864-1.929-1.93-1.929-1.064 0-1.928.863-1.928 1.93zm2.858 0c0 .511-.417.928-.93.928-.511 0-.928-.417-.928-.928 0-.513.417-.929.929-.929s.929.416.929.93z"/>
        <path stroke="#444" stroke-linecap="round" d="M9.5 12.5h2.31c.27 0 .502.19.555.455l1.937 9.607c.134.661.715 1.137 1.39 1.137h10.281c.658 0 1.23-.454 1.38-1.095l1.337-5.718c.207-.889-.467-1.74-1.38-1.74H16.233"/>
    </g>
</svg>
